<?xml version="1.0" encoding="us-ascii" standalone="no"?><svg xmlns="http://www.w3.org/2000/svg" xmlns:xlink="http://www.w3.org/1999/xlink" contentStyleType="text/css" height="260px" preserveAspectRatio="none" style="width:1536px;height:260px;background:#FFFFFF;" version="1.1" viewBox="0 0 1536 260" width="1536px" zoomAndPan="magnify"><defs/><g><rect fill="#F8F8FF" height="36.2969" rx="12.5" ry="12.5" style="stroke:#181818;stroke-width:1.5;" width="75" x="623" y="111.1328"/><text fill="#000000" font-family="sans-serif" font-size="14" lengthAdjust="spacing" textLength="55" x="633" y="134.1279">Chatbot</text><rect fill="#D3D3D3" height="36.2969" rx="12.5" ry="12.5" style="stroke:#181818;stroke-width:1.5;" width="58" x="748" y="20"/><text fill="#000000" font-family="sans-serif" font-size="14" lengthAdjust="spacing" textLength="38" x="758" y="42.9951">Tools</text><text fill="#000000" font-family="sans-serif" font-size="14" lengthAdjust="spacing" textLength="118" x="859" y="24.6982">Fluxo condicional</text><path d="M806,38.1484 L816,38.1484 C831,38.1484 831,19.8516 846,19.8516 L856,19.8516 " fill="none" style="stroke:#181818;stroke-width:1.0;"/><text fill="#000000" font-family="sans-serif" font-size="14" lengthAdjust="spacing" textLength="97" x="859" y="42.9951">https://fobi.io/</text><path d="M806,38.1484 L816,38.1484 C831,38.1484 831,38.1484 846,38.1484 L856,38.1484 " fill="none" style="stroke:#181818;stroke-width:1.0;"/><text fill="#000000" font-family="sans-serif" font-size="14" lengthAdjust="spacing" textLength="136" x="859" y="61.292">https://www.wati.io/</text><path d="M806,38.1484 L816,38.1484 C831,38.1484 831,56.4453 846,56.4453 L856,56.4453 " fill="none" style="stroke:#181818;stroke-width:1.0;"/><path d="M698,129.2813 L708,129.2813 C723,129.2813 723,38.1484 738,38.1484 L748,38.1484 " fill="none" style="stroke:#181818;stroke-width:1.0;"/><rect fill="#D3D3D3" height="36.2969" rx="12.5" ry="12.5" style="stroke:#181818;stroke-width:1.5;" width="89" x="748" y="138.9297"/><text fill="#000000" font-family="sans-serif" font-size="14" lengthAdjust="spacing" textLength="69" x="758" y="161.9248">Estrat&#233;gia</text><text fill="#000000" font-family="sans-serif" font-size="14" lengthAdjust="spacing" textLength="81" x="890" y="125.3311">Como criar?</text><text fill="#000000" font-family="sans-serif" font-size="14" lengthAdjust="spacing" textLength="167" x="1024" y="79.5889">Requirements/Business</text><path d="M971,120.4844 L981,120.4844 C996,120.4844 996,74.7422 1011,74.7422 L1021,74.7422 " fill="none" style="stroke:#181818;stroke-width:1.0;"/><text fill="#000000" font-family="sans-serif" font-size="14" lengthAdjust="spacing" textLength="60" x="1024" y="97.8857">Behavior</text><path d="M971,120.4844 L981,120.4844 C996,120.4844 996,93.0391 1011,93.0391 L1021,93.0391 " fill="none" style="stroke:#181818;stroke-width:1.0;"/><text fill="#000000" font-family="sans-serif" font-size="14" lengthAdjust="spacing" textLength="73" x="1024" y="116.1826">Interaction</text><path d="M971,120.4844 L981,120.4844 C996,120.4844 996,111.3359 1011,111.3359 L1021,111.3359 " fill="none" style="stroke:#181818;stroke-width:1.0;"/><text fill="#000000" font-family="sans-serif" font-size="14" lengthAdjust="spacing" textLength="114" x="1024" y="134.4795">Architect + build</text><path d="M971,120.4844 L981,120.4844 C996,120.4844 996,129.6328 1011,129.6328 L1021,129.6328 " fill="none" style="stroke:#181818;stroke-width:1.0;"/><text fill="#000000" font-family="sans-serif" font-size="14" lengthAdjust="spacing" textLength="55" x="1024" y="152.7764">Training</text><path d="M971,120.4844 L981,120.4844 C996,120.4844 996,147.9297 1011,147.9297 L1021,147.9297 " fill="none" style="stroke:#181818;stroke-width:1.0;"/><text fill="#000000" font-family="sans-serif" font-size="14" lengthAdjust="spacing" textLength="46" x="1024" y="171.0732">Curate</text><path d="M971,120.4844 L981,120.4844 C996,120.4844 996,166.2266 1011,166.2266 L1021,166.2266 " fill="none" style="stroke:#181818;stroke-width:1.0;"/><path d="M837,157.0781 L847,157.0781 C862,157.0781 862,120.4844 877,120.4844 L887,120.4844 " fill="none" style="stroke:#181818;stroke-width:1.0;"/><text fill="#000000" font-family="sans-serif" font-size="14" lengthAdjust="spacing" textLength="139" x="890" y="207.667">Estrat&#233;gia de canais</text><text fill="#000000" font-family="sans-serif" font-size="14" lengthAdjust="spacing" textLength="163" x="1082" y="189.3701">Onde seu p&#250;blico est&#225;?</text><path d="M1029,202.8203 L1039,202.8203 C1054,202.8203 1054,184.5234 1069,184.5234 L1079,184.5234 " fill="none" style="stroke:#181818;stroke-width:1.0;"/><text fill="#000000" font-family="sans-serif" font-size="14" lengthAdjust="spacing" textLength="442" x="1082" y="207.667">Frentes -&gt; tecnologia, segmenta&#231;&#227;o, seguran&#231;a, alcance, custo</text><path d="M1029,202.8203 L1039,202.8203 C1054,202.8203 1054,202.8203 1069,202.8203 L1079,202.8203 " fill="none" style="stroke:#181818;stroke-width:1.0;"/><text fill="#000000" font-family="sans-serif" font-size="14" lengthAdjust="spacing" textLength="341" x="1082" y="225.9639">Teams, Whatsapp, Web, Discord, Slack, Telegram</text><path d="M1029,202.8203 L1039,202.8203 C1054,202.8203 1054,221.1172 1069,221.1172 L1079,221.1172 " fill="none" style="stroke:#181818;stroke-width:1.0;"/><path d="M837,157.0781 L847,157.0781 C862,157.0781 862,202.8203 877,202.8203 L887,202.8203 " fill="none" style="stroke:#181818;stroke-width:1.0;"/><text fill="#000000" font-family="sans-serif" font-size="14" lengthAdjust="spacing" textLength="170" x="890" y="244.2607">Desenvolver e Hospedar</text><path d="M837,157.0781 L847,157.0781 C862,157.0781 862,239.4141 877,239.4141 L887,239.4141 " fill="none" style="stroke:#181818;stroke-width:1.0;"/><path d="M698,129.2813 L708,129.2813 C723,129.2813 723,157.0781 738,157.0781 L748,157.0781 " fill="none" style="stroke:#181818;stroke-width:1.0;"/><rect fill="#D3D3D3" height="36.2969" rx="12.5" ry="12.5" style="stroke:#181818;stroke-width:1.5;" width="123" x="450" y="88.4102"/><text fill="#000000" font-family="sans-serif" font-size="14" lengthAdjust="spacing" textLength="103" x="460" y="111.4053">Oportunidades</text><text fill="#000000" font-family="sans-serif" font-size="14" lengthAdjust="spacing" textLength="223" x="174" y="56.5146">Medicina -&gt; Processos, Triagem</text><path d="M450,106.5586 L440,106.5586 C425,106.5586 425,51.668 410,51.668 L400,51.668 " fill="none" style="stroke:#181818;stroke-width:1.0;"/><text fill="#000000" font-family="sans-serif" font-size="14" lengthAdjust="spacing" textLength="166" x="231" y="74.8115">Valida&#231;&#245;es -&gt; CPF, Data</text><path d="M450,106.5586 L440,106.5586 C425,106.5586 425,69.9648 410,69.9648 L400,69.9648 " fill="none" style="stroke:#181818;stroke-width:1.0;"/><text fill="#000000" font-family="sans-serif" font-size="14" lengthAdjust="spacing" textLength="73" x="324" y="93.1084">&#193;rea Fiscal</text><path d="M450,106.5586 L440,106.5586 C425,106.5586 425,88.2617 410,88.2617 L400,88.2617 " fill="none" style="stroke:#181818;stroke-width:1.0;"/><text fill="#000000" font-family="sans-serif" font-size="14" lengthAdjust="spacing" textLength="91" x="306" y="111.4053">Celebridades</text><path d="M450,106.5586 L440,106.5586 C425,106.5586 425,106.5586 410,106.5586 L400,106.5586 " fill="none" style="stroke:#181818;stroke-width:1.0;"/><text fill="#000000" font-family="sans-serif" font-size="14" lengthAdjust="spacing" textLength="113" x="284" y="129.7021">FAQ em Chatbot</text><path d="M450,106.5586 L440,106.5586 C425,106.5586 425,124.8555 410,124.8555 L400,124.8555 " fill="none" style="stroke:#181818;stroke-width:1.0;"/><text fill="#000000" font-family="sans-serif" font-size="14" lengthAdjust="spacing" textLength="156" x="241" y="147.999">Automa&#231;&#227;o residencial</text><path d="M450,106.5586 L440,106.5586 C425,106.5586 425,143.1523 410,143.1523 L400,143.1523 " fill="none" style="stroke:#181818;stroke-width:1.0;"/><text fill="#000000" font-family="sans-serif" font-size="14" lengthAdjust="spacing" textLength="81" x="316" y="166.2959">Onboarding</text><path d="M450,106.5586 L440,106.5586 C425,106.5586 425,161.4492 410,161.4492 L400,161.4492 " fill="none" style="stroke:#181818;stroke-width:1.0;"/><path d="M623,129.2813 L613,129.2813 C598,129.2813 598,106.5586 583,106.5586 L573,106.5586 " fill="none" style="stroke:#181818;stroke-width:1.0;"/><rect fill="#D3D3D3" height="36.2969" rx="12.5" ry="12.5" style="stroke:#181818;stroke-width:1.5;" width="73" x="500" y="169.7461"/><text fill="#000000" font-family="sans-serif" font-size="14" lengthAdjust="spacing" textLength="53" x="510" y="192.7412">Estudar</text><text fill="#000000" font-family="sans-serif" font-size="14" lengthAdjust="spacing" textLength="190" x="10" y="184.5928">WhatsApp API Masterclass -</text><text fill="#000000" font-family="sans-serif" font-size="14" lengthAdjust="spacing" textLength="437" x="10" y="200.8896">https://www.udemy.com/course/whatsapp-targeted-marketing/</text><path d="M500,187.8945 L490,187.8945 C475,187.8945 475,187.8945 460,187.8945 L450,187.8945 " fill="none" style="stroke:#181818;stroke-width:1.0;"/><path d="M623,129.2813 L613,129.2813 C598,129.2813 598,187.8945 583,187.8945 L573,187.8945 " fill="none" style="stroke:#181818;stroke-width:1.0;"/><!--SRC=[RLFBJjj05DtxAwxK3T0yW0Q4iYWa0LDG8b9YwA95rVNuuemOpxZpICgodr9rWVe1tNIR7-jrx5Jq8MyyvyxCEVUUCoVEe_M5r5c1PHJjl7yH7_4Nty5eZZurdZ46npAV-tEBZtUG6ADSXUvyX5Y5pmQ4qPaKqcXKDJptldJzRlVUfB8ZJVTFTBbSTfRewyhVjvyvRz6llkSI6uwHAPZ2IhJ7QuIXQ_eKfAM2j7VTON1IatDDRKXpN4XZc-M5zcHHU5RN80ChvjAJyF0IqY1Lrk29HQcbpflbAB0EQZGyKmKPWK2DqctKN6c670KeLpzJ9OK1SdxrzHYQUcnP9pbelmQcrKOPlgR59_Ag0LmzhRwPzP8PzUg9IwYOGL0BH73URFGH5gu5xzWMXsN9VvIsu5GwOMpMWfb2yT3YNOfoYqKZ_9GSwOLH2x90yCQuaZAq44MAxZqucT4_3boLnlgWPOOPRNoUK6Mmngg7gJM2nsrOIyAkv5JKUsvHyHdkvaVTwsWQippqM9TNNomXn2ntav8HIqrjmrDFQl0MgFYTlDgku4rH3maiLOgra9ihhdHgq6QLQ_y9Kk1McmRMKnkK9Goc5p11nw4G2XqB_Q2Vvp9aL3nsX2cwmWJhgBjinjtcPvAJfwnTe7qWpvGStXFYTxDvErE5sjzCni33TfmtsElix-xtEg-sadc0c5BOEu2zmtvljxzx0CFh1AhoThHrFXqlzi4neI3896TDfg5Ax7PqYGk4ww2zBAWFrMehcMp3x6m3mfbUI6jq5QNeydPIRsAd_QmqVhtviDSUIWypibKARYVHATrZK9wF2bFDhWytITm-YiQeyy26ze5qD39CO1-vDli5]--></g></svg>