<?xml version="1.0" encoding="us-ascii" standalone="no"?><svg xmlns="http://www.w3.org/2000/svg" xmlns:xlink="http://www.w3.org/1999/xlink" contentStyleType="text/css" height="404px" preserveAspectRatio="none" style="width:1495px;height:404px;background:#FFFFFF;" version="1.1" viewBox="0 0 1495 404" width="1495px" zoomAndPan="magnify"><defs/><g><rect fill="#F8F8FF" height="36.2969" rx="12.5" ry="12.5" style="stroke:#181818;stroke-width:1.5;" width="62" x="476" y="183.3203"/><text fill="#000000" font-family="sans-serif" font-size="14" lengthAdjust="spacing" textLength="42" x="486" y="206.3154">Aula 1</text><rect fill="#D3D3D3" height="36.2969" rx="12.5" ry="12.5" style="stroke:#181818;stroke-width:1.5;" width="125" x="588" y="28.4453"/><text fill="#000000" font-family="sans-serif" font-size="14" lengthAdjust="spacing" textLength="105" x="598" y="51.4404">Chatbot com IA</text><text fill="#000000" font-family="sans-serif" font-size="14" lengthAdjust="spacing" textLength="48" x="766" y="23.9951">Com IA</text><path d="M713,46.5938 L723,46.5938 C738,46.5938 738,19.1484 753,19.1484 L763,19.1484 " fill="none" style="stroke:#181818;stroke-width:1.0;"/><text fill="#000000" font-family="sans-serif" font-size="14" lengthAdjust="spacing" textLength="118" x="766" y="42.292">Fluxo condicional</text><path d="M713,46.5938 L723,46.5938 C738,46.5938 738,37.4453 753,37.4453 L763,37.4453 " fill="none" style="stroke:#181818;stroke-width:1.0;"/><text fill="#000000" font-family="sans-serif" font-size="14" lengthAdjust="spacing" textLength="97" x="766" y="60.5889">https://fobi.io/</text><path d="M713,46.5938 L723,46.5938 C738,46.5938 738,55.7422 753,55.7422 L763,55.7422 " fill="none" style="stroke:#181818;stroke-width:1.0;"/><text fill="#000000" font-family="sans-serif" font-size="14" lengthAdjust="spacing" textLength="136" x="766" y="78.8857">https://www.wati.io/</text><path d="M713,46.5938 L723,46.5938 C738,46.5938 738,74.0391 753,74.0391 L763,74.0391 " fill="none" style="stroke:#181818;stroke-width:1.0;"/><path d="M538,201.4688 L548,201.4688 C563,201.4688 563,46.5938 578,46.5938 L588,46.5938 " fill="none" style="stroke:#181818;stroke-width:1.0;"/><rect fill="#D3D3D3" height="36.2969" rx="12.5" ry="12.5" style="stroke:#181818;stroke-width:1.5;" width="208" x="588" y="156.5234"/><text fill="#000000" font-family="sans-serif" font-size="14" lengthAdjust="spacing" textLength="188" x="598" y="179.5186">Chatbot (IA conversacional)</text><text fill="#000000" font-family="sans-serif" font-size="14" lengthAdjust="spacing" textLength="81" x="849" y="142.9248">Como criar?</text><text fill="#000000" font-family="sans-serif" font-size="14" lengthAdjust="spacing" textLength="167" x="983" y="97.1826">Requirements/Business</text><path d="M930,138.0781 L940,138.0781 C955,138.0781 955,92.3359 970,92.3359 L980,92.3359 " fill="none" style="stroke:#181818;stroke-width:1.0;"/><text fill="#000000" font-family="sans-serif" font-size="14" lengthAdjust="spacing" textLength="60" x="983" y="115.4795">Behavior</text><path d="M930,138.0781 L940,138.0781 C955,138.0781 955,110.6328 970,110.6328 L980,110.6328 " fill="none" style="stroke:#181818;stroke-width:1.0;"/><text fill="#000000" font-family="sans-serif" font-size="14" lengthAdjust="spacing" textLength="73" x="983" y="133.7764">Interaction</text><path d="M930,138.0781 L940,138.0781 C955,138.0781 955,128.9297 970,128.9297 L980,128.9297 " fill="none" style="stroke:#181818;stroke-width:1.0;"/><text fill="#000000" font-family="sans-serif" font-size="14" lengthAdjust="spacing" textLength="114" x="983" y="152.0732">Architect + build</text><path d="M930,138.0781 L940,138.0781 C955,138.0781 955,147.2266 970,147.2266 L980,147.2266 " fill="none" style="stroke:#181818;stroke-width:1.0;"/><text fill="#000000" font-family="sans-serif" font-size="14" lengthAdjust="spacing" textLength="55" x="983" y="170.3701">Training</text><path d="M930,138.0781 L940,138.0781 C955,138.0781 955,165.5234 970,165.5234 L980,165.5234 " fill="none" style="stroke:#181818;stroke-width:1.0;"/><text fill="#000000" font-family="sans-serif" font-size="14" lengthAdjust="spacing" textLength="46" x="983" y="188.667">Curate</text><path d="M930,138.0781 L940,138.0781 C955,138.0781 955,183.8203 970,183.8203 L980,183.8203 " fill="none" style="stroke:#181818;stroke-width:1.0;"/><path d="M796,174.6719 L806,174.6719 C821,174.6719 821,138.0781 836,138.0781 L846,138.0781 " fill="none" style="stroke:#181818;stroke-width:1.0;"/><text fill="#000000" font-family="sans-serif" font-size="14" lengthAdjust="spacing" textLength="139" x="849" y="225.2607">Estrat&#233;gia de canais</text><text fill="#000000" font-family="sans-serif" font-size="14" lengthAdjust="spacing" textLength="163" x="1041" y="206.9639">Onde seu p&#250;blico est&#225;?</text><path d="M988,220.4141 L998,220.4141 C1013,220.4141 1013,202.1172 1028,202.1172 L1038,202.1172 " fill="none" style="stroke:#181818;stroke-width:1.0;"/><text fill="#000000" font-family="sans-serif" font-size="14" lengthAdjust="spacing" textLength="442" x="1041" y="225.2607">Frentes -&gt; tecnologia, segmenta&#231;&#227;o, seguran&#231;a, alcance, custo</text><path d="M988,220.4141 L998,220.4141 C1013,220.4141 1013,220.4141 1028,220.4141 L1038,220.4141 " fill="none" style="stroke:#181818;stroke-width:1.0;"/><text fill="#000000" font-family="sans-serif" font-size="14" lengthAdjust="spacing" textLength="341" x="1041" y="243.5576">Teams, Whatsapp, Web, Discord, Slack, Telegram</text><path d="M988,220.4141 L998,220.4141 C1013,220.4141 1013,238.7109 1028,238.7109 L1038,238.7109 " fill="none" style="stroke:#181818;stroke-width:1.0;"/><path d="M796,174.6719 L806,174.6719 C821,174.6719 821,220.4141 836,220.4141 L846,220.4141 " fill="none" style="stroke:#181818;stroke-width:1.0;"/><text fill="#000000" font-family="sans-serif" font-size="14" lengthAdjust="spacing" textLength="170" x="849" y="261.8545">Desenvolver e Hospedar</text><path d="M796,174.6719 L806,174.6719 C821,174.6719 821,257.0078 836,257.0078 L846,257.0078 " fill="none" style="stroke:#181818;stroke-width:1.0;"/><path d="M538,201.4688 L548,201.4688 C563,201.4688 563,174.6719 578,174.6719 L588,174.6719 " fill="none" style="stroke:#181818;stroke-width:1.0;"/><rect fill="#D3D3D3" height="36.2969" rx="12.5" ry="12.5" style="stroke:#181818;stroke-width:1.5;" width="122" x="588" y="257.1563"/><text fill="#000000" font-family="sans-serif" font-size="14" lengthAdjust="spacing" textLength="102" x="598" y="280.1514">Insights/Cases</text><text fill="#000000" font-family="sans-serif" font-size="14" lengthAdjust="spacing" textLength="88" x="763" y="280.1514">IA generativa</text><path d="M710,275.3047 L720,275.3047 C735,275.3047 735,275.3047 750,275.3047 L760,275.3047 " fill="none" style="stroke:#181818;stroke-width:1.0;"/><path d="M538,201.4688 L548,201.4688 C563,201.4688 563,275.3047 578,275.3047 L588,275.3047 " fill="none" style="stroke:#181818;stroke-width:1.0;"/><rect fill="#D3D3D3" height="36.2969" rx="12.5" ry="12.5" style="stroke:#181818;stroke-width:1.5;" width="73" x="588" y="330.0469"/><text fill="#000000" font-family="sans-serif" font-size="14" lengthAdjust="spacing" textLength="53" x="598" y="353.042">Estudar</text><text fill="#000000" font-family="sans-serif" font-size="14" lengthAdjust="spacing" textLength="112" x="714" y="317.4482">Design Thinking</text><path d="M661,348.1953 L671,348.1953 C686,348.1953 686,312.6016 701,312.6016 L711,312.6016 " fill="none" style="stroke:#181818;stroke-width:1.0;"/><text fill="#000000" font-family="sans-serif" font-size="14" lengthAdjust="spacing" textLength="19" x="714" y="335.7451">UX</text><path d="M661,348.1953 L671,348.1953 C686,348.1953 686,330.8984 701,330.8984 L711,330.8984 " fill="none" style="stroke:#181818;stroke-width:1.0;"/><text fill="#000000" font-family="sans-serif" font-size="14" lengthAdjust="spacing" textLength="38" x="714" y="354.042">OKRs</text><path d="M661,348.1953 L671,348.1953 C686,348.1953 686,349.1953 701,349.1953 L711,349.1953 " fill="none" style="stroke:#181818;stroke-width:1.0;"/><text fill="#000000" font-family="sans-serif" font-size="14" lengthAdjust="spacing" textLength="190" x="714" y="372.3389">WhatsApp API Masterclass -</text><text fill="#000000" font-family="sans-serif" font-size="14" lengthAdjust="spacing" textLength="437" x="714" y="388.6357">https://www.udemy.com/course/whatsapp-targeted-marketing/</text><path d="M661,348.1953 L671,348.1953 C686,348.1953 686,375.6406 701,375.6406 L711,375.6406 " fill="none" style="stroke:#181818;stroke-width:1.0;"/><path d="M538,201.4688 L548,201.4688 C563,201.4688 563,348.1953 578,348.1953 L588,348.1953 " fill="none" style="stroke:#181818;stroke-width:1.0;"/><rect fill="#D3D3D3" height="36.2969" rx="12.5" ry="12.5" style="stroke:#181818;stroke-width:1.5;" width="123" x="303" y="118.5781"/><text fill="#000000" font-family="sans-serif" font-size="14" lengthAdjust="spacing" textLength="103" x="313" y="141.5732">Oportunidades</text><text fill="#000000" font-family="sans-serif" font-size="14" lengthAdjust="spacing" textLength="223" x="27" y="86.6826">Medicina -&gt; Processos, Triagem</text><path d="M303,136.7266 L293,136.7266 C278,136.7266 278,81.8359 263,81.8359 L253,81.8359 " fill="none" style="stroke:#181818;stroke-width:1.0;"/><text fill="#000000" font-family="sans-serif" font-size="14" lengthAdjust="spacing" textLength="166" x="84" y="104.9795">Valida&#231;&#245;es -&gt; CPF, Data</text><path d="M303,136.7266 L293,136.7266 C278,136.7266 278,100.1328 263,100.1328 L253,100.1328 " fill="none" style="stroke:#181818;stroke-width:1.0;"/><text fill="#000000" font-family="sans-serif" font-size="14" lengthAdjust="spacing" textLength="73" x="177" y="123.2764">&#193;rea Fiscal</text><path d="M303,136.7266 L293,136.7266 C278,136.7266 278,118.4297 263,118.4297 L253,118.4297 " fill="none" style="stroke:#181818;stroke-width:1.0;"/><text fill="#000000" font-family="sans-serif" font-size="14" lengthAdjust="spacing" textLength="91" x="159" y="141.5732">Celebridades</text><path d="M303,136.7266 L293,136.7266 C278,136.7266 278,136.7266 263,136.7266 L253,136.7266 " fill="none" style="stroke:#181818;stroke-width:1.0;"/><text fill="#000000" font-family="sans-serif" font-size="14" lengthAdjust="spacing" textLength="113" x="137" y="159.8701">FAQ em Chatbot</text><path d="M303,136.7266 L293,136.7266 C278,136.7266 278,155.0234 263,155.0234 L253,155.0234 " fill="none" style="stroke:#181818;stroke-width:1.0;"/><text fill="#000000" font-family="sans-serif" font-size="14" lengthAdjust="spacing" textLength="156" x="94" y="178.167">Automa&#231;&#227;o residencial</text><path d="M303,136.7266 L293,136.7266 C278,136.7266 278,173.3203 263,173.3203 L253,173.3203 " fill="none" style="stroke:#181818;stroke-width:1.0;"/><text fill="#000000" font-family="sans-serif" font-size="14" lengthAdjust="spacing" textLength="81" x="169" y="196.4639">Onboarding</text><path d="M303,136.7266 L293,136.7266 C278,136.7266 278,191.6172 263,191.6172 L253,191.6172 " fill="none" style="stroke:#181818;stroke-width:1.0;"/><path d="M476,201.4688 L466,201.4688 C451,201.4688 451,136.7266 436,136.7266 L426,136.7266 " fill="none" style="stroke:#181818;stroke-width:1.0;"/><rect fill="#D3D3D3" height="36.2969" rx="12.5" ry="12.5" style="stroke:#181818;stroke-width:1.5;" width="58" x="368" y="219.2109"/><text fill="#000000" font-family="sans-serif" font-size="14" lengthAdjust="spacing" textLength="38" x="378" y="242.2061">Tools</text><text fill="#000000" font-family="sans-serif" font-size="14" lengthAdjust="spacing" textLength="41" x="274" y="214.7607">fobi.io</text><path d="M368,237.3594 L358,237.3594 C343,237.3594 343,209.9141 328,209.9141 L318,209.9141 " fill="none" style="stroke:#181818;stroke-width:1.0;"/><text fill="#000000" font-family="sans-serif" font-size="14" lengthAdjust="spacing" textLength="74" x="241" y="233.0576">DialogFlow</text><path d="M368,237.3594 L358,237.3594 C343,237.3594 343,228.2109 328,228.2109 L318,228.2109 " fill="none" style="stroke:#181818;stroke-width:1.0;"/><text fill="#000000" font-family="sans-serif" font-size="14" lengthAdjust="spacing" textLength="65" x="250" y="251.3545">NodeRed</text><path d="M368,237.3594 L358,237.3594 C343,237.3594 343,246.5078 328,246.5078 L318,246.5078 " fill="none" style="stroke:#181818;stroke-width:1.0;"/><text fill="#000000" font-family="sans-serif" font-size="14" lengthAdjust="spacing" textLength="50" x="265" y="269.6514">OpenAI</text><path d="M368,237.3594 L358,237.3594 C343,237.3594 343,264.8047 328,264.8047 L318,264.8047 " fill="none" style="stroke:#181818;stroke-width:1.0;"/><path d="M476,201.4688 L466,201.4688 C451,201.4688 451,237.3594 436,237.3594 L426,237.3594 " fill="none" style="stroke:#181818;stroke-width:1.0;"/><rect fill="#D3D3D3" height="36.2969" rx="12.5" ry="12.5" style="stroke:#181818;stroke-width:1.5;" width="87" x="339" y="283.9531"/><text fill="#000000" font-family="sans-serif" font-size="14" lengthAdjust="spacing" textLength="63" x="349" y="306.9482">Avatar -&gt;</text><text fill="#000000" font-family="sans-serif" font-size="14" lengthAdjust="spacing" textLength="209" x="77" y="297.7998">P&#250;blico construindo o produto</text><path d="M339,302.1016 L329,302.1016 C314,302.1016 314,292.9531 299,292.9531 L289,292.9531 " fill="none" style="stroke:#181818;stroke-width:1.0;"/><text fill="#000000" font-family="sans-serif" font-size="14" lengthAdjust="spacing" textLength="276" x="10" y="316.0967">Humaniza&#231;&#227;o do avatar -&gt; Engajamento</text><path d="M339,302.1016 L329,302.1016 C314,302.1016 314,311.25 299,311.25 L289,311.25 " fill="none" style="stroke:#181818;stroke-width:1.0;"/><path d="M476,201.4688 L466,201.4688 C451,201.4688 451,302.1016 436,302.1016 L426,302.1016 " fill="none" style="stroke:#181818;stroke-width:1.0;"/><!--SRC=[TLJDSjD84BxhARfgBmdhdoGRACe7G74YCCJ4s4vsgrYAQeqwycoa6J4_Dk76er0SA1vWBtlrYz5ZZM2Nr9OFLdTFTt_pzTVpn3eqhfQggB59adklVyaUyYzx0wcl40xPnRvpMQxSKuEtRs2yGfTh1qBNC4b3-DvR6BV6xZkh_7lDOLL88RN2gdMld6liQ3YyrhaSI3tyhtUpsGmswDh8_xNScwIXxfgCnRRq_e_-tD98D8zt7dRDwPsNXcfIpWvFl9MAh8sn4rhXMceJpOboP50uBXazgH4hwKWu-1LoBwiY-fS6fPAgZERO6tGKCPnPnzRsQoaH2WA12gNjq5meTbdoq6p_oIifD91rsq-F8SOpmpZ9GlyHS5kbAyrbUfnHXWlWzilsizwPt55jlt08A-uWg0V2MwSxV8IrxS7lJ9Z5fk4lodjmAgtGfkZ1ea9nq-DJ5PK6wmZyb2ofjQwOLo1ufcr31HguCuQ9ii6mmp5QiZ6PHrAIOlgSNEET5ER4SwqVZMIfOBcIwYQI-1Ok_sZ_BrxCRVkrGvys3QIp2KpHyd14XPR9-LFzMo- -eFfsm3eS2ksDfU4cNhlFaYx9KT6lqToGuruiggIYQmTM5dG7vaMZZVDA5bXylzYKWduLXf7CZ1Qi7itKBbba9TNjcIkiE8U7ytSxkl4iOxRHOHlUVZI4a37xtHACcVdSn3xjuDDNG7KdyTQNUgVhTkPWA21MGdObBbIkqHI1lv-liTIwwk37DOl4SxOkiqflMlkbBcXEHIpOa4edTugbQxw72RUA5MUTSda5MUgUdmmD6XgZ2-zYesU-HYK_HEmSn-zLpbI9Vs5GiqwI9yJlJVVcp2fKxd9w3c6nUGVXS71qS7Gy-6rlkVAGKGw7z-7mmUZuO7Hm7qxcImZX_MJlwUnyVGIMXoy82icWPEx35kydpxanpBroigOH16jlETs7nLddP3nhQRGAW9BdLzFs4AlVBHhjTeSV7FTFf8C5cR0PLzFabAxHLuvJXGu36C7bCki_JCvHbPvLCG9IoLXp0tFBiSKt]--></g></svg>